<?xml version="1.0" encoding="utf-8"?>
<!-- Generator: Adobe Illustrator 16.0.0, SVG Export Plug-In . SVG Version: 6.00 Build 0)  -->
<!DOCTYPE svg PUBLIC "-//W3C//DTD SVG 1.1//EN" "http://www.w3.org/Graphics/SVG/1.1/DTD/svg11.dtd">
<svg version="1.1" id="Layer_1" xmlns="http://www.w3.org/2000/svg" xmlns:xlink="http://www.w3.org/1999/xlink" x="0px" y="0px"
	 width="300px" height="300px" viewBox="0 0 300 300" enable-background="new 0 0 300 300" xml:space="preserve">
<g id="Layer_2">
	<g id="path_1_">
		<polygon fill="none" stroke="#FFFFFF" stroke-width="4" stroke-miterlimit="10" points="35.416,144 42.164,130.125 
			46.255,116.883 45.896,102.178 51.656,89.102 63.488,80.27 71.879,69.384 79.047,55.585 92.83,50.408 105.333,43.019 
			119.184,38.631 133.958,40.215 148.003,35.765 162.236,38.537 176.48,40.112 190.464,43.598 204.258,48.295 213.604,60.414 
			228.209,65.007 235.147,78.18 245.786,88.279 249.137,102.561 254.297,115.783 260.244,129.406 260.779,144 253.227,157.807 
			257.056,172.88 249.818,185.71 246.824,200.324 231.754,207.128 226.446,221.111 214.021,228.196 203.878,238.976 
			191.377,246.949 176.875,249.623 162.289,249.984 147.997,249.119 133.563,251.243 118.9,250.568 105.763,243.772 92.711,237.809 
			80.214,230.725 69.891,220.739 62.615,208.418 54.938,197.008 45.34,186.038 46.603,171.035 39.086,158.223 		"/>
	</g>
	<g>
		<polygon fill="none" stroke="#FFFFFF" stroke-width="2" stroke-miterlimit="10" points="179.455,211 172.369,226.369 157,232.155 
			140.977,227.023 135.535,211 141.222,195.222 157,187.684 171.974,196.026 		"/>
	</g>
	<g>
		<polygon fill="none" stroke="#FFFFFF" stroke-width="2" stroke-miterlimit="10" points="122.237,85 118.56,95.56 108,99.51 
			96.983,96.017 93.238,85 96.895,73.895 108,69.239 118.587,74.413 		"/>
	</g>
	<g>
		<polygon fill="none" stroke="#FFFFFF" stroke-width="2" stroke-miterlimit="10" points="230.481,144.66 224.254,154.006 
			212.897,153.809 203.716,147.142 204.32,135.941 210.932,127.365 221.843,126.97 230.896,133.552 		"/>
	</g>
	<g>
		<polygon fill="none" stroke="#FFFFFF" stroke-width="2" stroke-miterlimit="10" points="86.165,132 79,139.291 72.286,132 
			79,124.761 		"/>
	</g>
	<g>
		<polygon fill="none" stroke="#FFFFFF" stroke-width="2" stroke-miterlimit="10" points="120.33,183.5 114.908,198.909 
			99.5,204.506 83.954,199.047 77.781,183.5 83.689,167.689 99.5,160.805 114.3,168.7 		"/>
	</g>
	<g>
		<polygon fill="none" stroke="#FFFFFF" stroke-width="2" stroke-miterlimit="10" points="148.578,136 143.41,147.41 132,153.258 
			120.518,147.482 114.966,136 119.493,123.493 132,118.509 143.497,124.503 		"/>
	</g>
	<g>
		<polygon fill="none" stroke="#FFFFFF" stroke-width="2" stroke-miterlimit="10" points="154.919,98.5 149.5,104.204 143.923,98.5 
			149.5,92.97 		"/>
	</g>
	<g>
		<polygon fill="none" stroke="#FFFFFF" stroke-width="2" stroke-miterlimit="10" points="206.657,89 201.351,104.35 186,109.47 
			171.667,103.332 165.67,89 170.817,73.818 186,69.035 200.201,74.799 		"/>
	</g>
	<g>
		<polygon fill="none" stroke="#FFFFFF" stroke-width="2" stroke-miterlimit="10" points="183.827,130.5 179.5,134.869 
			174.985,130.5 179.5,125.758 		"/>
	</g>
	<g>
		<polygon fill="none" stroke="#FFFFFF" stroke-width="2" stroke-miterlimit="10" points="211.912,189.5 207.5,194.058 
			203.206,189.5 207.5,185.216 		"/>
	</g>
	<g>
		<polygon fill="none" stroke="#FFFFFF" stroke-width="2" stroke-miterlimit="10" points="193.749,163.5 189.311,173.311 
			179.5,177.368 169.79,173.21 164.79,163.5 169.788,153.788 179.5,148.854 189.666,153.334 		"/>
	</g>
</g>
</svg>
