<?xml version="1.0" encoding="utf-8"?>
<!-- Generator: Adobe Illustrator 16.0.0, SVG Export Plug-In . SVG Version: 6.00 Build 0)  -->
<!DOCTYPE svg PUBLIC "-//W3C//DTD SVG 1.1//EN" "http://www.w3.org/Graphics/SVG/1.1/DTD/svg11.dtd">
<svg version="1.1" id="Layer_1" xmlns="http://www.w3.org/2000/svg" xmlns:xlink="http://www.w3.org/1999/xlink" x="0px" y="0px"
	 width="36px" height="36px" viewBox="0 0 36 36" enable-background="new 0 0 36 36" xml:space="preserve">
<g>
	<path opacity="0.3" fill="#01A9F4" d="M5.286,16c0.337-2,1.018-3.593,1.978-5.012L3.731,7.571C1.93,9.95,0.711,12,0.282,16H5.286z"
		/>
	<path opacity="0.3" fill="#01A9F4" d="M7.264,25.012C6.304,23.594,5.624,22,5.286,20H0.282c0.429,4,1.647,6.05,3.449,8.429
		L7.264,25.012z"/>
	<path opacity="0.3" fill="#01A9F4" d="M20,0.282v5.004c2,0.337,3.594,1.018,5.012,1.978l3.417-3.533C26.05,1.93,24,0.711,20,0.282z
		"/>
	<path opacity="0.3" fill="#01A9F4" d="M10.988,7.264C12.407,6.304,14,5.624,16,5.286V0.282C12,0.711,9.95,1.93,7.571,3.731
		L10.988,7.264z"/>
	<path opacity="0.3" fill="#01A9F4" d="M30.714,20c-0.337,2-1.019,3.594-1.978,5.012l3.533,3.417C34.07,26.05,35.289,24,35.718,20
		H30.714z"/>
	<path opacity="0.3" fill="#01A9F4" d="M28.736,10.988C29.695,12.407,30.377,14,30.714,16h5.004c-0.429-4-1.647-6.05-3.448-8.429
		L28.736,10.988z"/>
	<path opacity="0.3" fill="#01A9F4" d="M16,30.714c-2-0.337-3.593-1.019-5.012-1.978L7.571,32.27C9.95,34.07,12,35.289,16,35.718
		V30.714z"/>
	<path opacity="0.3" fill="#01A9F4" d="M25.012,28.736C23.594,29.695,22,30.377,20,30.714v5.004c4-0.429,6.05-1.647,8.429-3.448
		L25.012,28.736z"/>
</g>
</svg>
