<?xml version="1.0" encoding="utf-8"?>
<!-- Generator: Adobe Illustrator 16.0.0, SVG Export Plug-In . SVG Version: 6.00 Build 0)  -->
<!DOCTYPE svg PUBLIC "-//W3C//DTD SVG 1.1//EN" "http://www.w3.org/Graphics/SVG/1.1/DTD/svg11.dtd">
<svg version="1.1" id="Layer_1" xmlns="http://www.w3.org/2000/svg" xmlns:xlink="http://www.w3.org/1999/xlink" x="0px" y="0px"
	 width="50px" height="66px" viewBox="0 0 50 66" enable-background="new 0 0 50 66" xml:space="preserve">
<polyline id="chassis_2_" fill="none" stroke="#B8FF52" stroke-width="2" stroke-miterlimit="10" points="4.425,22.118 
	5.386,17.795 25.559,13 36.606,1 43.331,1 35.078,21.165 "/>
<path id="cockpit_1_" fill="none" stroke="#B8FF52" stroke-width="2" stroke-miterlimit="10" d="M6.347,17.795
	c0,0,1.44-15.851,29.779-15.851"/>
<line id="chassis_floor" fill="none" stroke="#B8FF52" stroke-width="2" stroke-miterlimit="10" x1="3" y1="22" x2="30" y2="22"/>
<polygon id="rocket_bay" fill="none" stroke="#B8FF52" stroke-width="2" stroke-miterlimit="10" points="1,26 23,26 25,27 25,33 
	23,34 1,34 "/>
<polyline id="leg_upper_1_" fill="none" stroke="#B8FF52" stroke-width="2" stroke-miterlimit="10" points="40.449,33.166 
	26.207,18.484 29.323,15.488 42.37,28.843 "/>
<polygon id="foot_1_" fill="none" stroke="#B8FF52" stroke-width="2" stroke-miterlimit="10" points="13.311,65 42.851,65 
	40.689,58 32.043,58 27.721,52 17.634,52 "/>
<polyline id="leg_lower_7_" fill="none" stroke="#B8FF52" stroke-width="2" stroke-miterlimit="10" points="35.646,57.662 
	42.123,45.198 39.175,43.852 47.901,26.569 44.09,26.081 29.882,54.299 "/>
<line id="pylon" fill="none" stroke="#B8FF52" stroke-width="2" stroke-miterlimit="10" x1="15" y1="23" x2="15" y2="25"/>
<line id="pylon_1_" fill="none" stroke="#B8FF52" stroke-width="2" stroke-miterlimit="10" x1="19" y1="23" x2="19" y2="25"/>
<g>
	<path fill="#FFFFFF" d="M49,1v64H1V1H49 M50,0H0v66h50V0L50,0z"/>
</g>
</svg>
